<svg version="1.1" xmlns="http://www.w3.org/2000/svg" xmlns:xlink="http://www.w3.org/1999/xlink" width="1560" height="804"><defs/><g><path fill="none" stroke="#02063B" paint-order="fill stroke markers" d=" M 20 415.63835852896875 L 21 416.31447775234943 L 22 416.9897499693888 L 23 417.6641352233479 L 24 418.3375936099707 L 25 419.010085279845 L 26 419.6815704407604 L 27 420.3520093600633 L 28 421.0213623670071 L 29 421.6895898551004 L 30 422.35665228445015 L 31 423.02251018410124 L 32 423.6871241543723 L 33 424.35045486918676 L 34 425.01246307840006 L 35 425.67310961012197 L 36 426.33235537303443 L 37 426.99016135870477 L 38 427.6464886438939 L 39 428.3012983928592 L 40 428.95455185965284 L 41 429.606210390414 L 42 430.2562354256565 L 43 430.90458850255015 L 44 431.5512312571968 L 45 432.1961254269001 L 46 432.83923285243 L 47 433.48051548028025 L 48 434.1199353649204 L 49 434.7574546710408 L 50 435.39303567579174 L 51 436.0266407710151 L 52 436.6582324654699 L 53 437.28777338705095 L 54 437.91522628499973 L 55 438.540554032109 L 56 439.1637196269193 L 57 439.78468619590865 L 58 440.40341699567426 L 59 441.01987541510675 L 60 441.63402497755635 L 61 442.24582934299156 L 62 442.8552523101491 L 63 443.4622578186762 L 64 444.06680995126425 L 65 444.66887293577406 L 66 445.2684111473527 L 67 445.8653891105412 L 68 446.45977150137395 L 69 447.0515231494687 L 70 447.64060904010773 L 71 448.2269943163096 L 72 448.8106442808917 L 73 449.39152439852353 L 74 449.96960029777006 L 75 450.54483777312527 L 76 451.1172027870367 L 77 451.686661471919 L 78 452.25318013215815 L 79 452.81672524610525 L 80 453.37726346805994 L 81 453.9347616302437 L 82 454.48918674476226 L 83 455.0405060055576 L 84 455.588686790349 L 85 456.13369666256375 L 86 456.6755033732559 L 87 457.21407486301484 L 88 457.7493792638623 L 89 458.28138490113776 L 90 458.810060295373 L 91 459.3353741641545 L 92 459.85729542397473 L 93 460.37579319207117 L 94 460.8908367882538 L 95 461.40239573672045 L 96 461.9104397678601 L 97 462.41493882004403 L 98 462.91586304140446 L 99 463.4131827916011 L 100 463.90686864357497 L 101 464.39689138528945 L 102 464.88322202145895 L 103 465.3658317752648 L 104 465.84469209005755 L 105 466.31977463104704 L 106 466.7910512869789 L 107 467.25849417179813 L 108 467.7220756262987 L 109 468.1817682197606 L 110 468.63754475157276 L 111 469.08937825284266 L 112 469.53724198799193 L 113 469.9811094563386 L 114 470.42095439366483 L 115 470.85675077377135 L 116 471.2884728100173 L 117 471.716094956846 L 118 472.13959191129663 L 119 472.5589386145013 L 120 472.9741102531681 L 121 473.3850822610488 L 122 473.7918303203932 L 123 474.1943303633875 L 124 474.5925585735784 L 125 474.98649138728274 L 126 475.3761054949815 L 127 475.76137784269923 L 128 476.1422856333679 L 129 476.51880632817614 L 130 476.89091764790277 L 131 477.2585975742351 L 132 477.6218243510717 L 133 477.98057648580993 L 134 478.33483275061747 L 135 478.6845721836885 L 136 479.029774090484 L 137 479.37041804495647 L 138 479.70648389075825 L 139 480.03795174243436 L 140 480.3648019865992 L 141 480.687015283097 L 142 481.0045725661462 L 143 481.31745504546774 L 144 481.6256442073967 L 145 481.9291218159779 L 146 482.22786991404496 L 147 482.5218708242828 L 148 482.81110715027364 L 149 483.0955617775264 L 150 483.37521787448924 L 151 483.6500588935458 L 152 483.92006857199397 L 153 484.1852309330086 L 154 484.44553028658646 L 155 484.7009512304749 L 156 484.9514786510831 L 157 485.19709772437653 L 158 485.4377939167537 L 159 485.6735529859068 L 160 485.9043609816637 L 161 486.13020424681383 L 162 486.35106941791645 L 163 486.56694342609086 L 164 486.7778134977901 L 165 486.98366715555665 L 166 487.18449221876085 L 167 487.38027680432134 L 168 487.5710093274086 L 169 487.75667850213017 L 170 487.9372733421985 L 171 488.1127831615811 L 172 488.2831975751327 L 173 488.44850649920994 L 174 488.60870015226794 L 175 488.7637690554391 L 176 488.91370403309384 L 177 489.05849621338376 L 178 489.1981370287665 L 179 489.33261821651257 L 180 489.4619318191946 L 181 489.58607018515784 L 182 489.70502596897296 L 183 489.81879213187096 L 184 489.92736194215945 L 185 490.03072897562095 L 186 490.1288871158931 L 187 490.2218305548306 L 188 490.30955379284876 L 189 490.39205163924896 L 190 490.46931921252605 L 191 490.5413519406567 L 192 490.6081455613704 L 193 490.6696961224013 L 194 490.72599998172245 L 195 490.77705380776086 L 196 490.822854579595 L 197 490.8633995871334 L 198 490.89868643127505 L 199 490.92871302405126 L 200 490.95347758874937 L 201 490.97297866001765 L 202 490.9872150839524 L 203 490.99618601816564 L 204 490.99989093183564 L 205 490.9983296057377 L 206 490.99150213225766 L 207 490.97940891538593 L 208 490.96205067069394 L 209 490.9394284252918 L 210 490.9115435177672 L 211 490.8783975981066 L 212 490.8399926275973 L 213 490.7963308787116 L 214 490.7474149349722 L 215 490.6932476907993 L 216 490.63383235133955 L 217 490.56917243227616 L 218 490.49927175962097 L 219 490.424134469488 L 220 490.34376500784896 L 221 490.2581681302697 L 222 490.16734890162934 L 223 490.0713126958202 L 224 489.97006519543004 L 225 489.8636123914056 L 226 489.7519605826983 L 227 489.6351163758915 L 228 489.51308668480954 L 229 489.3858787301086 L 230 489.2535000388493 L 231 489.1159584440519 L 232 488.97326208423203 L 233 488.8254194029197 L 234 488.67243914815936 L 235 488.51433037199257 L 236 488.351102429922 L 237 488.1827649803581 L 238 488.00932798404773 L 239 487.83080170348427 L 240 487.647196702301 L 241 487.4585238446456 L 242 487.2647942945373 L 243 487.06601951520673 L 244 486.86221126841707 L 245 486.6533816137685 L 246 486.4395429079842 L 247 486.2207078041799 L 248 485.9968892511142 L 249 485.7681004924234 L 250 485.53435506583696 L 251 485.29566680237707 L 252 485.05204982553994 L 253 484.8035185504603 L 254 484.5500876830581 L 255 484.2917722191688 L 256 484.02858744365574 L 257 483.7605489295057 L 258 483.4876725369077 L 259 483.2099744123141 L 260 482.92747098748566 L 261 482.64017897851886 L 262 482.3481153848571 L 263 482.0512974882846 L 264 481.7497428519039 L 265 481.44346931909655 L 266 481.13249501246753 L 267 480.8168383327726 L 268 480.4965179578297 L 269 480.17155284141376 L 270 479.84196221213506 L 271 479.5077655723015 L 272 479.16898269676466 L 273 478.8256336317498 L 274 478.4777386936693 L 275 478.1253184679211 L 276 477.76839380767007 L 277 477.4069858326145 L 278 477.0411159277362 L 279 476.6708057420352 L 280 476.29607718724884 L 281 475.916952436555 L 282 475.5334539232602 L 283 475.14560433947236 L 284 474.7534266347577 L 285 474.3569440147833 L 286 473.9561799399435 L 287 473.5511581239719 L 288 473.14190253253827 L 289 472.7284373818304 L 290 472.3107871371211 L 291 471.8889765113209 L 292 471.4630304635152 L 293 471.03297419748804 L 294 470.59883316023013 L 295 470.1606330404336 L 296 469.71839976697174 L 297 469.27215950736496 L 298 468.82193866623203 L 299 468.3677638837281 L 300 467.9096620339681 L 301 467.44766022343674 L 302 466.98178578938445 L 303 466.51206629820985 L 304 466.03852954382864 L 305 465.5612035460289 L 306 465.0801165488133 L 307 464.59529701872765 L 308 464.10677364317667 L 309 463.61457532872646 L 310 463.118731199394 L 311 462.61927059492393 L 312 462.11622306905247 L 313 461.60961838775853 L 314 461.0994865275028 L 315 460.5858576734536 L 316 460.0687622177008 L 317 459.5482307574579 L 318 459.0242940932511 L 319 458.4969832270971 L 320 457.9663293606683 L 321 457.432363893447 L 322 456.8951184208673 L 323 456.35462473244513 L 324 455.81091480989807 L 325 455.26402082525215 L 326 454.71397513893857 L 327 454.1608102978789 L 328 453.60455903355927 L 329 453.0452542600932 L 330 452.4829290722746 L 331 451.9176167436191 L 332 451.34935072439544 L 333 450.77816463964604 L 334 450.2040922871974 L 335 449.6271676356603 L 336 449.0474248224198 L 337 448.4648981516152 L 338 447.8796220921103 L 339 447.2916312754538 L 340 446.70096049383017 L 341 446.1076446980009 L 342 445.51171899523644 L 343 444.91321864723875 L 344 444.31217906805506 L 345 443.7086358219821 L 346 443.10262462146187 L 347 442.4941813249685 L 348 441.8833419348864 L 349 441.2701425953799 L 350 440.6546195902547 L 351 440.03680934081086 L 352 439.4167484036875 L 353 438.79447346870006 L 354 438.17002135666905 L 355 437.5434290172413 L 356 436.91473352670386 L 357 436.2839720857899 L 358 435.65118201747754 L 359 435.0164007647814 L 360 434.37966588853726 L 361 433.7410150651791 L 362 433.10048608451024 L 363 432.45811684746684 L 364 431.8139453638756 L 365 431.1680097502042 L 366 430.52034822730656 L 367 429.87099911816074 L 368 429.2200008456015 L 369 428.5673919300466 L 370 427.91321098721795 L 371 427.25749672585613 L 372 426.6002879454303 L 373 425.9416235338422 L 374 425.28154246512514 L 375 424.620083797138 L 376 423.9572866692539 L 377 423.29319030004444 L 378 422.62783398495895 L 379 421.96125709399956 L 380 421.29349906939126 L 381 420.6245994232484 L 382 419.9545977352365 L 383 419.2835336502304 L 384 418.6114468759684 L 385 417.9383771807025 L 386 417.2643643908455 L 387 416.5894483886144 L 388 415.91366910967037 L 389 415.23706654075573 L 390 414.5596807173282 L 391 413.8815517211914 L 392 413.2027196781236 L 393 412.52322475550324 L 394 411.84310715993223 L 395 411.1624071348569 L 396 410.4811649581865 L 397 409.79942093991036 L 398 409.11721541971224 L 399 408.43458876458357 L 400 407.75158136643506 L 401 407.06823363970636 L 402 406.3845860189748 L 403 405.70067895656285 L 404 405.0165529201445 L 405 404.33224839035057 L 406 403.64780585837383 L 407 402.96326582357267 L 408 402.27866879107484 L 409 401.5940552693807 L 410 400.9094657679664 L 411 400.2249407948867 L 412 399.5405208543782 L 413 398.8562464444624 L 414 398.1721580545498 L 415 397.48829616304374 L 416 396.80470123494536 L 417 396.12141371945927 L 418 395.43847404760004 L 419 394.7559226297998 L 420 394.07379985351736 L 421 393.392146080848 L 422 392.7110016461358 L 423 392.0304068535863 L 424 391.3504019748822 L 425 390.67102724680007 L 426 389.99232286882983 L 427 389.31432900079585 L 428 388.63708576048055 L 429 387.96063322125093 L 430 387.28501140968706 L 431 386.61026030321375 L 432 385.93641982773516 L 433 385.2635298552722 L 434 384.5916302016032 L 435 383.9207606239081 L 436 383.2509608184158 L 437 382.58227041805554 L 438 381.9147289901115 L 439 381.24837603388164 L 440 380.5832509783406 L 441 379.91939317980643 L 442 379.25684191961204 L 443 378.5956364017806 L 444 377.9358157507062 L 445 377.27741900883825 L 446 376.6204851343718 L 447 375.965052998942 L 448 375.3111613853243 L 449 374.65884898513934 L 450 374.00815439656367 L 451 373.35911612204575 L 452 372.71177256602795 L 453 372.06616203267373 L 454 371.4223227236015 L 455 370.78029273562385 L 456 370.14011005849363 L 457 369.5018125726558 L 458 368.8654380470062 L 459 368.2310241366564 L 460 367.5986083807061 L 461 366.96822820002126 L 462 366.33992089502044 L 463 365.71372364346735 L 464 365.0896734982711 L 465 364.4678073852937 L 466 363.84816210116514 L 467 363.230774311106 L 468 362.61568054675814 L 469 362.0029172040227 L 470 361.39252054090696 L 471 360.78452667537846 L 472 360.17897158322825 L 473 359.5758910959419 L 474 358.9753208985794 L 475 358.37729652766353 L 476 357.78185336907734 L 477 357.18902665596994 L 478 356.5988514666723 L 479 356.01136272262085 L 480 355.4265951862919 L 481 354.8445834591441 L 482 354.2653619795714 L 483 353.6889650208652 L 484 353.1154266891862 L 485 352.5447809215465 L 486 351.9770614838012 L 487 351.4123019686509 L 488 350.8505357936536 L 489 350.29179619924747 L 490 349.7361162467839 L 491 349.1835288165714 L 492 348.6340666059298 L 493 348.0877621272555 L 494 347.54464770609803 L 495 347.00475547924685 L 496 346.4681173928301 L 497 345.9347652004242 L 498 345.40473046117467 L 499 344.8780445379293 L 500 344.35473859538195 L 501 343.8348435982286 L 502 343.3183903093351 L 503 342.805409287917 L 504 342.2959308877312 L 505 341.78998525527993 L 506 341.28760232802705 L 507 340.7888118326263 L 508 340.29364328316274 L 509 339.802125979406 L 510 339.3142890050768 L 511 338.83016122612594 L 512 338.34977128902636 L 513 337.87314761907794 L 514 337.4003184187256 L 515 336.9313116658906 L 516 336.46615511231494 L 517 336.0048762819194 L 518 335.5475024691747 L 519 335.09406073748653 L 520 334.6445779175944 L 521 334.1990806059836 L 522 333.757595163312 L 523 333.3201477128496 L 524 332.8867641389333 L 525 332.4574700854352 L 526 332.03229095424496 L 527 331.611251903767 L 528 331.19437784743184 L 529 330.7816934522217 L 530 330.3732231372112 L 531 329.9689910721222 L 532 329.56902117589397 L 533 329.1733371152675 L 534 328.78196230338534 L 535 328.3949198984063 L 536 328.0122328021348 L 537 327.63392365866605 L 538 327.26001485304624 L 539 326.89052850994756 L 540 326.5254864923594 L 541 326.1649104002947 L 542 325.8088215695117 L 543 325.45724107025137 L 544 325.11018970599116 L 545 324.76768801221345 L 546 324.4297562551907 L 547 324.0964144307861 L 548 323.767682263271 L 549 323.44357920415683 L 550 323.1241244310449 L 551 322.8093368464913 L 552 322.4992350768884 L 553 322.19383747136294 L 554 321.89316210069 L 555 321.5972267562239 L 556 321.3060489488455 L 557 321.01964590792585 L 558 320.7380345803068 L 559 320.4612316292985 L 560 320.18925343369295 L 561 319.92211608679514 L 562 319.65983539547074 L 563 319.4024268792108 L 564 319.14990576921326 L 565 318.9022870074821 L 566 318.65958524594265 L 567 318.42181484557517 L 568 318.18898987556474 L 569 317.9611241124689 L 570 317.73823103940236 L 571 317.5203238452393 L 572 317.30741542383305 L 573 317.09951837325286 L 574 316.89664499503874 L 575 316.69880729347335 L 576 316.50601697487184 L 577 316.3182854468892 L 578 316.13562381784504 L 579 315.95804289606644 L 580 315.7855531892485 L 581 315.6181649038324 L 582 315.4558879444015 L 583 315.29873191309554 L 584 315.14670610904204 L 585 314.9998195278064 L 586 314.85808086085933 L 587 314.7214984950629 L 588 314.59008051217415 L 589 314.46383468836666 L 590 314.3427684937706 L 591 314.22688909203094 L 592 314.1162033398831 L 593 314.0107177867477 L 594 313.9104386743426 L 595 313.8153719363137 L 596 313.72552319788423 L 597 313.6408977755213 L 598 313.5615006766217 L 599 313.4873365992153 L 600 313.4184099316876 L 601 313.3547247525195 L 602 313.29628483004603 L 603 313.2430936222339 L 604 313.1951542764763 L 605 313.15246962940694 L 606 313.115042206732 L 607 313.08287422308115 L 608 313.0559675818758 L 609 313.0343238752172 L 610 313.0179443837916 L 611 313.00683007679504 L 612 313.00098161187543 L 613 313.00039933509424 L 614 313.0050832809054 L 615 313.0150331721538 L 616 313.0302484200913 L 617 313.050728124412 L 618 313.0764710733048 L 619 313.107475743526 L 620 313.1437403004887 L 621 313.18526259837165 L 622 313.2320401802463 L 623 313.2840702782221 L 624 313.3413498136102 L 625 313.4038753971056 L 626 313.47164332898797 L 627 313.54464959934023 L 628 313.62288988828607 L 629 313.7063595662454 L 630 313.7950536942084 L 631 313.88896702402764 L 632 313.9880939987288 L 633 314.09242875283934 L 634 314.2019651127356 L 635 314.3166965970081 L 636 314.4366164168452 L 637 314.5617174764344 L 638 314.69199237338273 L 639 314.8274333991545 L 640 314.96803253952714 L 641 315.1137814750661 L 642 315.2646715816164 L 643 315.4206939308135 L 644 315.58183929061124 L 645 315.7480981258282 L 646 315.919460598712 L 647 316.09591656952136 L 648 316.2774555971261 L 649 316.4640669396248 L 650 316.6557395549807 L 651 316.8524621016748 L 652 317.05422293937715 L 653 317.26101012963557 L 654 317.4728114365819 L 655 317.6896143276562 L 656 317.91140597434844 L 657 318.1381732529571 L 658 318.3699027453662 L 659 318.60658073983916 L 660 318.8481932318299 L 661 319.09472592481177 L 662 319.34616423112334 L 663 319.6024932728318 L 664 319.863697882613 L 665 320.12976260464893 L 666 320.40067169554277 L 667 320.6764091252497 L 668 320.95695857802593 L 669 321.242303453394 L 670 321.5324268671251 L 671 321.82731165223777 L 672 322.12694036001443 L 673 322.43129526103303 L 674 322.7403583462167 L 675 323.05411132789897 L 676 323.3725356409064 L 677 323.6956124436564 L 678 324.02332261927273 L 679 324.3556467767163 L 680 324.6925652519329 L 681 325.0340581090162 L 682 325.38010514138796 L 683 325.73068587299343 L 684 326.08577955951284 L 685 326.44536518958915 L 686 326.809421486071 L 687 327.17792690727197 L 688 327.55085964824497 L 689 327.9281976420728 L 690 328.30991856117356 L 691 328.69599981862206 L 692 329.0864185694861 L 693 329.48115171217836 L 694 329.88017588982325 L 695 330.2834674916392 L 696 330.69100265433553 L 697 331.1027572635243 L 698 331.51870695514776 L 699 331.93882711691947 L 700 332.3630928897808 L 701 332.7914791693719 L 702 333.22396060751714 L 703 333.66051161372525 L 704 334.1011063567029 L 705 334.54571876588403 L 706 334.99432253297164 L 707 335.446891113495 L 708 335.9033977283803 L 709 336.36381536553495 L 710 336.82811678144606 L 711 337.2962745027927 L 712 337.768260828071 L 713 338.2440478292338 L 714 338.7236073533429 L 715 339.2069110242351 L 716 339.693930244201 L 717 340.1846361956774 L 718 340.67899984295235 L 719 341.17699193388324 L 720 341.67858300162777 L 721 342.18374336638743 L 722 342.6924431371638 L 723 343.2046522135272 L 724 343.7203402873976 L 725 344.23947684483835 L 726 344.7620311678613 L 727 345.28797233624493 L 728 345.8172692293634 L 729 346.34989052802837 L 730 346.8858047163421 L 731 347.42498008356216 L 732 347.96738472597815 L 733 348.5129865487989 L 734 349.06175326805214 L 735 349.61365241249445 L 736 350.1686513255328 L 737 350.7267171671567 L 738 351.2878169158816 L 739 351.85191737070267 L 740 352.4189851530592 L 741 352.9889867088103 L 742 353.5618883102192 L 743 354.1376560579503 L 744 354.716255883074 L 745 355.29765354908307 L 746 355.88181465391835 L 747 356.4687046320045 L 748 357.05828875629516 L 749 357.65053214032764 L 750 358.2453997402876 L 751 358.8428563570824 L 752 359.44286663842365 L 753 360.04539508091966 L 754 360.6504060321756 L 755 361.2578636929034 L 756 361.86773211904006 L 757 362.47997522387436 L 758 363.0945567801823 L 759 363.71144042237063 L 760 364.33058964862875 L 761 364.9519678230883 L 762 365.57553817799135 L 763 366.2012638158657 L 764 366.8291077117082 L 765 367.4590327151757 L 766 368.09100155278304 L 767 368.724976830109 L 768 369.3609210340084 L 769 369.99879653483237 L 770 370.63856558865444 L 771 371.2801903395043 L 772 371.9236328216076 L 773 372.5688549616323 L 774 373.21581858094197 L 775 373.8644853978543 L 776 374.51481702990674 L 777 375.1667749961273 L 778 375.8203207193118 L 779 376.4754155283063 L 780 377.1320206602956 L 781 377.7900972630965 L 782 378.44960639745716 L 783 379.11050903936075 L 784 379.772766082335 L 785 380.43633833976577 L 786 381.1011865472162 L 787 381.7672713647495 L 788 382.4345533792573 L 789 383.10299310679136 L 790 383.7725509949002 L 791 384.44318742496915 L 792 385.1148627145649 L 793 385.78753711978345 L 794 386.46117083760186 L 795 387.13572400823335 L 796 387.81115671748597 L 797 388.48742899912435 L 798 389.16450083723424 L 799 389.84233216859104 L 800 390.5208828850296 L 801 391.200112835818 L 802 391.87998183003305 L 803 392.5604496389385 L 804 393.2414759983656 L 805 393.9230206110953 L 806 394.6050431492428 L 807 395.287503256644 L 808 395.97036055124306 L 809 396.65357462748216 L 810 397.33710505869226 L 811 398.0209113994851 L 812 398.7049531881466 L 813 399.3891899490308 L 814 400.07358119495507 L 815 400.75808642959566 L 816 401.442665149884 L 817 402.12727684840326 L 818 402.81188101578516 L 819 403.49643714310713 L 820 404.18090472428923 L 821 404.8652432584908 L 822 405.5494122525072 L 823 406.2333712231656 L 824 406.9170796997205 L 825 407.6004972262485 L 826 408.2835833640422 L 827 408.9662976940028 L 828 409.64859981903174 L 829 410.33044936642153 L 830 411.01180599024383 L 831 411.69262937373753 L 832 412.37287923169396 L 833 413.0525153128407 L 834 413.73149740222334 L 835 414.40978532358497 L 836 415.08733894174355 L 837 415.76411816496676 L 838 416.4400829473441 L 839 417.1151932911567 L 840 417.78940924924393 L 841 418.46269092736713 L 842 419.13499848657017 L 843 419.8062921455369 L 844 420.4765321829447 L 845 421.1456789398156 L 846 421.813692821862 L 847 422.4805343018302 L 848 423.14616392183905 L 849 423.81054229571464 L 850 424.47363011132114 L 851 425.13538813288653 L 852 425.79577720332446 L 853 426.45475824655136 L 854 427.1122922697983 L 855 427.76834036591845 L 856 428.4228637156893 L 857 429.0758235901095 L 858 429.72718135269065 L 859 430.3768984617433 L 860 431.0249364726577 L 861 431.67125704017855 L 862 432.3158219206738 L 863 432.95859297439773 L 864 433.5995321677478 L 865 434.23860157551485 L 866 434.8757633831276 L 867 435.51097988888984 L 868 436.1442135062113 L 869 436.7754267658321 L 870 437.4045823180393 L 871 438.03164293487725 L 872 438.65657151235047 L 873 439.2793310726189 L 874 439.89988476618623 L 875 440.5181958740799 L 876 441.13422781002436 L 877 441.7479441226054 L 878 442.3593084974275 L 879 442.96828475926213 L 880 443.5748368741887 L 881 444.1789289517265 L 882 444.7805252469584 L 883 445.3795901626461 L 884 445.97608825133614 L 885 446.5699842174577 L 886 447.16124291941094 L 887 447.74982937164634 L 888 448.33570874673495 L 889 448.918846377429 L 890 449.49920775871345 L 891 450.07675854984745 L 892 450.65146457639656 L 893 451.22329183225463 L 894 451.7922064816563 L 895 452.3581748611787 L 896 452.92116348173386 L 897 453.4811390305498 L 898 454.03806837314215 L 899 454.5919185552744 L 900 455.14265680490803 L 901 455.69025053414157 L 902 456.2346673411391 L 903 456.77587501204704 L 904 457.31384152290093 L 905 457.84853504151977 L 906 458.37992392938975 L 907 458.90797674353655 L 908 459.4326622383855 L 909 459.9539493676108 L 910 460.4718072859722 L 911 460.98620535114054 L 912 461.49711312551045 L 913 462.00450037800175 L 914 462.50833708584827 L 915 463.00859343637387 L 916 463.50523982875717 L 917 463.99824687578257 L 918 464.48758540557924 L 919 464.9732264633474 L 920 465.4551413130714 L 921 465.9333014392204 L 922 466.40767854843523 L 923 466.87824457120297 L 924 467.3449716635174 L 925 467.8078322085272 L 926 468.26679881816926 L 927 468.72184433479015 L 928 469.17294183275226 L 929 469.6200646200276 L 930 470.0631862397771 L 931 470.5022804719157 L 932 470.9373213346644 L 933 471.3682830860871 L 934 471.7951402256143 L 935 472.21786749555173 L 936 472.6364398825746 L 937 473.05083261920834 L 938 473.46102118529353 L 939 473.86698130943705 L 940 474.26868897044824 L 941 474.6661203987602 L 942 475.05925207783633 L 943 475.44806074556186 L 944 475.8325233956201 L 945 476.21261727885405 L 946 476.5883199046123 L 947 476.9596090420799 L 948 477.3264627215936 L 949 477.68885923594223 L 950 478.0467771416508 L 951 478.4001952602494 L 952 478.7490926795264 L 953 479.09344875476603 L 954 479.4332431099695 L 955 479.76845563906113 L 956 480.09906650707785 L 957 480.42505615134286 L 958 480.7464052826232 L 959 481.0630948862712 L 960 481.37510622334935 L 961 481.6824208317395 L 962 481.9850205272348 L 963 482.2828874046163 L 964 482.57600383871176 L 965 482.8643524854391 L 966 483.1479162828323 L 967 483.42667845205114 L 968 483.7006224983741 L 969 483.9697322121743 L 970 484.2339916698784 L 971 484.4933852349092 L 972 484.74789755861093 L 973 484.9975135811568 L 974 485.2422185324409 L 975 485.48199793295174 L 976 485.71683759462906 L 977 485.94672362170337 L 978 486.17164241151823 L 979 486.39158065533525 L 980 486.60652533912116 L 981 486.8164637443185 L 982 487.0213834485976 L 983 487.221272326592 L 984 487.4161185506157 L 985 487.6059105913632 L 986 487.7906372185917 L 987 487.9702875017853 L 988 488.14485081080227 L 989 488.3143168165036 L 990 488.4786754913644 L 991 488.6379171100673 L 992 488.7920322500778 L 993 488.9410117922017 L 994 489.08484692112506 L 995 489.22352912593544 L 996 489.3570502006256 L 997 489.48540224457935 L 998 489.60857766303855 L 999 489.7265691675528 L 1000 489.8393697764107 L 1001 489.946972815053 L 1002 490.0493719164674 L 1003 490.1465610215653 L 1004 490.2385343795404 L 1005 490.325286548209 L 1006 490.4068123943321 L 1007 490.4831070939188 L 1008 490.55416613251225 L 1009 490.61998530545617 L 1010 490.68056071814425 L 1011 490.7358887862502 L 1012 490.78596623593995 L 1013 490.83079010406544 L 1014 490.87035773833986 L 1015 490.90466679749454 L 1016 490.9337152514178 L 1017 490.9575013812746 L 1018 490.9760237796085 L 1019 490.98928135042513 L 1020 490.9972733092567 L 1021 490.9999991832085 L 1022 490.99745881098704 L 1023 490.9896523429095 L 1024 490.9765802408947 L 1025 490.95824327843604 L 1026 490.93464254055556 L 1027 490.9057794237397 L 1028 490.8716556358568 L 1029 490.83227319605595 L 1030 490.7876344346475 L 1031 490.7377419929653 L 1032 490.68259882321024 L 1033 490.62220818827575 L 1034 490.55657366155447 L 1035 490.4856991267271 L 1036 490.40958877753246 L 1037 490.3282471175192 L 1038 490.2416789597797 L 1039 490.14988942666474 L 1040 490.052883949481 L 1041 489.9506682681691 L 1042 489.84324843096454 L 1043 489.73063079403926 L 1044 489.61282202112596 L 1045 489.48982908312354 L 1046 489.3616592576847 L 1047 489.2283201287855 L 1048 489.08981958627623 L 1049 488.9461658254149 L 1050 488.7973673463821 L 1051 488.64343295377813 L 1052 488.48437175610206 L 1053 488.3201931652127 L 1054 488.1509068957716 L 1055 487.97652296466833 L 1056 487.79705169042796 L 1057 487.61250369260006 L 1058 487.4228898911307 L 1059 487.2282215057161 L 1060 487.02851005513884 L 1061 486.8237673565862 L 1062 486.6140055249511 L 1063 486.399236972115 L 1064 486.17947440621356 L 1065 485.9547308308849 L 1066 485.7250195444998 L 1067 485.4903541393751 L 1068 485.25074850096917 L 1069 485.0062168070605 L 1070 484.7567735269089 L 1071 484.5024334203989 L 1072 484.24321153716676 L 1073 483.9791232157097 L 1074 483.7101840824787 L 1075 483.4364100509535 L 1076 483.15781732070093 L 1077 482.87442237641676 L 1078 482.5862419869498 L 1079 482.2932932043101 L 1080 481.9955933626597 L 1081 481.69316007728685 L 1082 481.38601124356416 L 1083 481.0741650358891 L 1084 480.75763990660903 L 1085 480.4364545849292 L 1086 480.11062807580447 L 1087 479.780179658815 L 1088 479.44512888702496 L 1089 479.10549558582613 L 1090 478.76129985176453 L 1091 478.4125620513511 L 1092 478.05930281985695 L 1093 477.70154306009215 L 1094 477.33930394116874 L 1095 476.97260689724857 L 1096 476.6014736262745 L 1097 476.22592608868683 L 1098 475.84598650612384 L 1099 475.4616773601067 L 1100 475.0730213907094 L 1101 474.6800415952133 L 1102 474.28276122674595 L 1103 473.8812037929057 L 1104 473.4753930543701 L 1105 473.0653530234906 L 1106 472.6511079628713 L 1107 472.23268238393337 L 1108 471.8101010454646 L 1109 471.38338895215475 L 1110 470.95257135311556 L 1111 470.517673740387 L 1112 470.0787218474287 L 1113 469.63574164759734 L 1114 469.18875935260985 L 1115 468.7378014109923 L 1116 468.28289450651505 L 1117 467.82406555661356 L 1118 467.36134171079607 L 1119 466.89475034903677 L 1120 466.42431908015584 L 1121 465.9500757401857 L 1122 465.4720483907242 L 1123 464.9902653172737 L 1124 464.50475502756797 L 1125 464.01554624988466 L 1126 463.5226679313462 L 1127 463.02614923620615 L 1128 462.52601954412415 L 1129 462.02230844842717 L 1130 461.51504575435854 L 1131 461.00426147731434 L 1132 460.4899858410671 L 1133 459.97224927597796 L 1134 459.45108241719544 L 1135 458.9265161028432 L 1136 458.39858137219505 L 1137 457.8673094638384 L 1138 457.33273181382583 L 1139 456.79488005381506 L 1140 456.25378600919703 L 1141 455.709481697213 L 1142 455.1619993250598 L 1143 454.6113712879844 L 1144 454.05763016736677 L 1145 453.50080872879215 L 1146 452.94093992011216 L 1147 452.37805686949537 L 1148 451.8121928834668 L 1149 451.24338144493765 L 1150 450.67165621122336 L 1151 450.09705101205265 L 1152 449.51959984756553 L 1153 448.9393368863015 L 1154 448.3562964631776 L 1155 447.77051307745717 L 1156 447.182021390708 L 1157 446.59085622475175 L 1158 445.9970525596032 L 1159 445.40064553140076 L 1160 444.80167043032696 L 1161 444.20016269852084 L 1162 443.5961579279803 L 1163 442.98969185845635 L 1164 442.38080037533837 L 1165 441.76951950753045 L 1166 441.1558854253198 L 1167 440.53993443823646 L 1168 439.9217029929046 L 1169 439.3012276708862 L 1170 438.6785451865163 L 1171 438.0536923847307 L 1172 437.4267062388856 L 1173 436.7976238485699 L 1174 436.16648243741037 L 1175 435.5333193508683 L 1176 434.8981720540304 L 1177 434.2610781293916 L 1178 433.62207527463147 L 1179 432.9812013003833 L 1180 432.338494127997 L 1181 431.6939917872954 L 1182 431.0477324143235 L 1183 430.3997542490923 L 1184 429.75009563331616 L 1185 429.0987950081436 L 1186 428.4458909118831 L 1187 427.7914219777228 L 1188 427.13542693144404 L 1189 426.47794458913035 L 1190 425.81901385487055 L 1191 425.15867371845667 L 1192 424.4969632530769 L 1193 423.8339216130035 L 1194 423.1695880312762 L 1195 422.5040018173806 L 1196 421.83720235492206 L 1197 421.16922909929553 L 1198 420.50012157535093 L 1199 419.8299193750541 L 1200 419.15866215514444 L 1201 418.4863896347883 L 1202 417.81314159322847 L 1203 417.1389578674307 L 1204 416.4638783497267 L 1205 415.7879429854529 L 1206 415.1111917705876 L 1207 414.43366474938375 L 1208 413.7554020120001 L 1209 413.07644369212846 L 1210 412.3968299646193 L 1211 411.71660104310433 L 1212 411.0357971776171 L 1213 410.35445865221135 L 1214 409.6726257825774 L 1215 408.99033891365656 L 1216 408.30763841725377 L 1217 407.6245646896489 L 1218 406.94115814920644 L 1219 406.25745923398387 L 1220 405.5735083993388 L 1221 404.8893461155352 L 1222 404.20501286534886 L 1223 403.52054914167184 L 1224 402.83599544511645 L 1225 402.15139228161894 L 1226 401.4667801600424 L 1227 400.7821995897801 L 1228 400.09769107835837 L 1229 399.4132951290396 L 1230 398.72905223842605 L 1231 398.04500289406286 L 1232 397.36118757204315 L 1233 396.67764673461244 L 1234 395.99442082777466 L 1235 395.31155027889895 L 1236 394.6290754943275 L 1237 393.94703685698437 L 1238 393.2654747239865 L 1239 392.58442942425523 L 1240 391.9039412561304 L 1241 391.22405048498547 L 1242 390.5447973408452 L 1243 389.8662220160052 L 1244 389.18836466265356 L 1245 388.511265390495 L 1246 387.83496426437773 L 1247 387.1595013019225 L 1248 386.4849164711548 L 1249 385.8112496881401 L 1250 385.13854081462154 L 1251 384.46682965566174 L 1252 383.79615595728706 L 1253 383.1265594041361 L 1254 382.45807961711125 L 1255 381.79075615103454 L 1256 381.1246284923068 L 1257 380.45973605657144 L 1258 379.7961181863822 L 1259 379.1338141488751 L 1260 378.47286313344483 L 1261 377.8133042494261 L 1262 377.1551765237794 L 1263 376.4985188987817 L 1264 375.8433702297221 L 1265 375.1897692826029 L 1266 374.5377547318457 L 1267 373.88736515800286 L 1268 373.23863904547466 L 1269 372.59161478023265 L 1270 371.9463306475473 L 1271 371.3028248297234 L 1272 370.66113540384066 L 1273 370.0213003395002 L 1274 369.38335749657836 L 1275 368.74734462298625 L 1276 368.1132993524361 L 1277 367.48125920221463 L 1278 366.85126157096283 L 1279 366.22334373646316 L 1280 365.597542853434 L 1281 364.9738959513307 L 1282 364.3524399321549 L 1283 363.73321156827075 L 1284 363.1162475002292 L 1285 362.5015842345998 L 1286 361.8892581418107 L 1287 361.2793054539964 L 1288 360.6717622628539 L 1289 360.06666451750726 L 1290 359.46404802238015 L 1291 358.86394843507765 L 1292 358.2664012642758 L 1293 357.67144186762124 L 1294 357.07910544963823 L 1295 356.48942705964623 L 1296 355.9024415896855 L 1297 355.318183772453 L 1298 354.7366881792465 L 1299 354.1579892179198 L 1300 353.5821211308461 L 1301 353.009117992892 L 1302 352.4390137094016 L 1303 351.8718420141897 L 1304 351.3076364675462 L 1305 350.7464304542501 L 1306 350.18825718159405 L 1307 349.6331496774195 L 1308 349.08114078816226 L 1309 348.5322631769093 L 1310 347.98654932146553 L 1311 347.44403151243245 L 1312 346.9047418512973 L 1313 346.3687122485335 L 1314 345.83597442171265 L 1315 345.30655989362765 L 1316 344.78049999042753 L 1317 344.2578258397636 L 1318 343.738568368948 L 1319 343.22275830312327 L 1320 342.71042616344465 L 1321 342.2016022652739 L 1322 341.6963167163854 L 1323 341.19459941518505 L 1324 340.69648004894066 L 1325 340.2019880920256 L 1326 339.71115280417473 L 1327 339.224003228753 L 1328 338.7405681910369 L 1329 338.26087629650897 L 1330 337.78495592916494 L 1331 337.3128352498345 L 1332 336.84454219451476 L 1333 336.38010447271716 L 1334 335.91954956582845 L 1335 335.46290472548384 L 1336 335.01019697195477 L 1337 334.5614530925502 L 1338 334.11669964003147 L 1339 333.67596293104117 L 1340 333.2392690445459 L 1341 332.8066438202932 L 1342 332.37811285728253 L 1343 331.9537015122506 L 1344 331.5334348981708 L 1345 331.11733788276763 L 1346 330.70543508704486 L 1347 330.29775088382866 L 1348 329.89430939632587 L 1349 329.49513449669604 L 1350 329.1002498046393 L 1351 328.7096786859985 L 1352 328.3234442513768 L 1353 327.9415693547701 L 1354 327.56407659221463 L 1355 327.1909883004501 L 1356 326.822326555598 L 1357 326.4581131718552 L 1358 326.09836970020314 L 1359 325.74311742713286 L 1360 325.3923773733853 L 1361 325.0461702927074 L 1362 324.7045166706243 L 1363 324.3674367232269 L 1364 324.03495039597584 L 1365 323.7070773625214 L 1366 323.383837023539 L 1367 323.0652485055817 L 1368 322.75133065994805 L 1369 322.442102061567 L 1370 322.1375810078985 L 1371 321.837785517851 L 1372 321.54273333071495 L 1373 321.25244190511376 L 1374 320.9669284179701 L 1375 320.68620976348984 L 1376 320.41030255216236 L 1377 320.1392231097776 L 1378 319.8729874764602 L 1379 319.6116114057203 L 1380 319.3551103635212 L 1381 319.1034995273646 L 1382 318.85679378539226 L 1383 318.61500773550506 L 1384 318.3781556844993 L 1385 318.1462516472202 L 1386 317.91930934573236 L 1387 317.6973422085083 L 1388 317.4803633696332 L 1389 317.2683856680284 L 1390 317.0614216466913 L 1391 316.8594835519533 L 1392 316.66258333275516 L 1393 316.47073263993997 L 1394 316.2839428255638 L 1395 316.10222494222387 L 1396 315.9255897424046 L 1397 315.75404767784147 L 1398 315.5876088989024 L 1399 315.4262832539873 L 1400 315.2700802889453 L 1401 315.1190092465098 L 1402 314.97307906575156 L 1403 314.8322983815501 L 1404 314.69667552408225 L 1405 314.5662185183296 L 1406 314.44093508360356 L 1407 314.32083263308857 L 1408 314.2059182734034 L 1409 314.09619880418086 L 1410 313.99168071766513 L 1411 313.89237019832797 L 1412 313.79827312250245 L 1413 313.7093950580354 L 1414 313.625741263958 L 1415 313.54731669017445 L 1416 313.47412597716925 L 1417 313.4061734557324 L 1418 313.34346314670336 L 1419 313.28599876073304 L 1420 313.23378369806414 L 1421 313.1868210483301 L 1422 313.14511359037226 L 1423 313.1086637920754 L 1424 313.07747381022165 L 1425 313.05154549036297 L 1426 313.0308803667118 L 1427 313.0154796620507 L 1428 313.0053442876594 L 1429 313.00047484326114 L 1430 313.0008716169874 L 1431 313.00653458536055 L 1432 313.0174634132953 L 1433 313.03365745411867 L 1434 313.05511574960815 L 1435 313.0818370300483 L 1436 313.11381971430615 L 1437 313.1510619099244 L 1438 313.1935614132338 L 1439 313.2413157094832 L 1440 313.29432197298854 L 1441 313.3525770673 L 1442 313.41607754538757 L 1443 313.48481964984495 L 1444 313.5587993131122 L 1445 313.63801215771593 L 1446 313.7224534965288 L 1447 313.8121183330463 L 1448 313.90700136168323 L 1449 314.0070969680867 L 1450 314.1123992294691 L 1451 314.22290191495796 L 1452 314.33859848596524 L 1453 314.4594820965736 L 1454 314.585545593942 L 1455 314.7167815187288 L 1456 314.85318210553277 L 1457 314.99473928335317 L 1458 315.1414446760669 L 1459 315.2932896029243 L 1460 315.4502650790628 L 1461 315.6123618160384 L 1462 315.7795702223756 L 1463 315.9518804041346 L 1464 316.12928216549693 L 1465 316.3117650093687 L 1466 316.49931813800174 L 1467 316.69193045363255 L 1468 316.8895905591388 L 1469 317.09228675871407 L 1470 317.30000705855946 L 1471 317.5127391675935 L 1472 317.7304704981796 L 1473 317.95318816687063 L 1474 318.1808789951712 L 1475 318.4135295103177 L 1476 318.65112594607535 L 1477 318.8936542435528 L 1478 319.14110005203395 L 1479 319.3934487298272 L 1480 319.6506853451317 L 1481 319.91279467692107 L 1482 320.1797612158439 L 1483 320.45156916514134 L 1484 320.7282024415822 L 1485 321.00964467641415 L 1486 321.29587921633276 L 1487 321.5868891244665 L 1488 321.88265718137905 L 1489 322.1831658860882 L 1490 322.48839745710154 L 1491 322.79833383346846 L 1492 323.11295667584875 L 1493 323.432247367598 L 1494 323.75618701586905 L 1495 324.08475645272983 L 1496 324.4179362362978 L 1497 324.75570665189 L 1498 325.09804771318994 L 1499 325.44493916342986 L 1500 325.7963604765897 L 1501 326.15229085861154 L 1502 326.51270924862973 L 1503 326.87759432021755 L 1504 327.24692448264886 L 1505 327.62067788217564 L 1506 327.99883240332116 L 1507 328.38136567018853 L 1508 328.7682550477849 L 1509 329.15947764336056 L 1510 329.5550103077636 L 1511 329.9548296368098 L 1512 330.3589119726673 L 1513 330.76723340525666 L 1514 331.1797697736655 L 1515 331.59649666757815 L 1516 332.0173894287202 L 1517 332.44242315231725 L 1518 332.87157268856885 L 1519 333.3048126441365 L 1520 333.7421173836465 L 1521 334.18346103120604 L 1522 334.62881747193535 L 1523 335.0781603535122 L 1524 335.5314630877316 L 1525 335.98869885207864 L 1526 336.44984059131616 L 1527 336.9148610190853 L 1528 337.3837326195202 L 1529 337.85642764887564 L 1530 338.3329181371697 L 1531 338.81317588983796 L 1532 339.29717248940193 L 1533 339.7848792971509 L 1534 340.2762674548361 L 1535 340.7713078863786 L 1536 341.2699712995896 L 1537 341.77222818790375 L 1538 342.2780488321251 L 1539 342.78740330218557" stroke-linecap="round" stroke-linejoin="round" stroke-miterlimit="10" stroke-width="5"/></g></svg>